<?xml version="1.0" encoding="utf-8"?>
<!-- Generator: Adobe Illustrator 18.0.0, SVG Export Plug-In . SVG Version: 6.00 Build 0)  -->
<!DOCTYPE svg PUBLIC "-//W3C//DTD SVG 1.1//EN" "http://www.w3.org/Graphics/SVG/1.1/DTD/svg11.dtd">
<svg version="1.1" id="Capa_1" xmlns="http://www.w3.org/2000/svg" xmlns:xlink="http://www.w3.org/1999/xlink" x="0px" y="0px"
	 viewBox="0 0 612 792" enable-background="new 0 0 612 792" xml:space="preserve">
<path fill="#F2F2F2" d="M612,396c0,169-137,306-306,306c-103.2,0-194.4-51-249.8-129.3c0,0,0,0,0,0c-14.1-19.9-25.9-41.5-34.9-64.5
	c-4.6-11.6-8.5-23.6-11.6-35.9c0,0,0,0,0,0C3.3,447.9,0,422.4,0,396C0,227,137,90,306,90c94.6,0,179.3,43,235.4,110.5
	c20.3,24.4,36.8,51.9,48.8,81.8C604.2,317.4,612,355.8,612,396z"/>
<path fill="#9B0A0E" d="M590.2,282.2c0,0.2-0.1,0.5-0.1,0.7c-1.7,15.1-6.5,31.4-14.1,48.3l0,0L444.2,666.5L91.4,583.7
	c-4.3-0.8-8.5-1.8-12.6-3c-8.1-2.2-15.7-4.9-22.6-8c0,0,0,0,0,0C35,542.8,19,508.9,9.6,472.4c1-4.4,2.7-11.2,5-19.5
	c8.6-32.1,25.2-87.1,45.2-116l1.9,66.9l131.8,8.8l178.7-85l77.1-113.3l-34.2-54.7c57,13.8,93.1,26.3,115.9,36.2
	c3.8,1.6,7.2,3.2,10.2,4.7c22.8,11,27.2,17.7,27.2,17.7c7.5,6.3,13.2,13.8,16.6,22.3C590.2,252.9,591.8,267,590.2,282.2z"/>
<ellipse transform="matrix(-0.8917 0.4527 -0.4527 -0.8917 596.276 418.6178)" fill="#EF0E13" cx="248" cy="280.7" rx="200" ry="88.6"/>
<g>
	<path fill="#F5655E" d="M360,531.2l84.2,135.3l-221.9-87.1C266.1,570.4,313.2,554.4,360,531.2z"/>
	<path fill="#F5655E" d="M59.8,336.9l2,66.9l-47.2,49.1C23.1,420.8,39.8,365.8,59.8,336.9z"/>
</g>
<g>
	<path fill="#950C10" d="M61.7,403.8L21.2,508.2c-4.6-11.6-8.5-23.6-11.6-35.9c0,0,0,0,0,0c1.1-4.4,2.7-11.2,5-19.5L61.7,403.8z"/>
	<path fill="#950C10" d="M449.5,214.3L590.1,283c-1.7,15.1-6.5,31.4-14.1,48.3l0,0c-5.7,12.7-13,25.7-21.8,38.8L449.5,214.3z"/>
</g>
<g>
	<path fill="#EF0E13" d="M576,331.3L444.2,666.5L478,453.9c31.6-27,57.3-55.7,76.2-83.8C563,356.9,570.3,343.9,576,331.3z"/>
	<polygon fill="#EF0E13" points="449.5,214.3 554.2,370.1 372.3,327.6 	"/>
</g>
<path fill="#F5655E" d="M531.1,195.8l-81.7,18.5l-34.2-54.7C472.3,173.5,508.4,185.9,531.1,195.8z"/>
<path fill="#950C10" d="M372.3,327.6L478,453.9c-31.8,27.2-69.5,52.7-112.1,74.4c-2,1-3.9,2-5.9,2.9L372.3,327.6z"/>
<polygon fill="#EF0E13" points="372.3,327.6 360,531.2 193.6,412.6 "/>
<path fill="#950C10" d="M193.6,412.6L360,531.2c-46.8,23.2-93.9,39.2-137.7,48.2L193.6,412.6z"/>
<polygon fill="#F5655E" points="193.6,412.6 78.8,580.8 61.7,403.8 "/>
</svg>
